<svg width="24" height="24" viewBox="0 0 24 24" fill="none" xmlns="http://www.w3.org/2000/svg">
<path d="M2.43627 5.14637C2 5.64296 2 6.49439 2 8.19724V17.5905C2 18.7965 2 19.3995 2.3146 19.8535C2.62919 20.3074 3.17921 20.4981 4.27924 20.8795L5.57343 21.3282C6.27436 21.5712 6.81371 21.7581 7.26633 21.8785C7.5616 21.9571 7.83333 21.7253 7.83333 21.4198V6.26961C7.83333 6.02069 7.64964 5.81062 7.40837 5.74942C7.01914 5.65069 6.55127 5.48849 5.91002 5.26617C4.35676 4.72768 3.58014 4.45844 2.98922 4.73186C2.77941 4.82894 2.59116 4.97006 2.43627 5.14637Z" fill="#D3FA61"/>
<path d="M12.6204 3.48047L11.0844 4.54547C10.5287 4.93075 10.1215 5.21311 9.77375 5.41443C9.60895 5.50983 9.5 5.68242 9.5 5.87285V20.9198C9.5 21.2904 9.88398 21.5218 10.1962 21.3221C10.5312 21.1077 10.9149 20.8417 11.3796 20.5195L12.9156 19.4545C13.4712 19.0692 13.8785 18.7868 14.2262 18.5855C14.3911 18.4901 14.5 18.3175 14.5 18.1271V3.08015C14.5 2.70955 14.116 2.47817 13.8038 2.67788C13.4688 2.89222 13.0851 3.15825 12.6204 3.48047Z" fill="#D3FA61"/>
<path d="M19.7208 3.12044L18.4266 2.67177C17.7256 2.42874 17.1863 2.24179 16.7337 2.12139C16.4384 2.04284 16.1667 2.27461 16.1667 2.58015V17.7303C16.1667 17.9792 16.3504 18.1893 16.5916 18.2505C16.9809 18.3492 17.4488 18.5115 18.09 18.7338C19.6432 19.2722 20.4199 19.5415 21.0108 19.2681C21.2206 19.171 21.4088 19.0299 21.5637 18.8536C22 18.357 22 17.5055 22 15.8027V6.4094C22 5.20341 22 4.60042 21.6854 4.14646C21.3708 3.69249 20.8208 3.50181 19.7208 3.12044Z" fill="#D3FA61"/>
</svg>
